<svg width="18" height="20" viewBox="0 0 18 20" fill="none" xmlns="http://www.w3.org/2000/svg">
<path fill-rule="evenodd" clip-rule="evenodd" d="M8.48787 19.8242L8.48578 19.8226L8.48062 19.8185L8.46233 19.8041C8.44665 19.7918 8.42406 19.7739 8.39503 19.7507C8.33697 19.7042 8.2531 19.6364 8.1471 19.5489C7.93517 19.374 7.63439 19.12 7.27433 18.7999C6.55535 18.1608 5.59424 17.2534 4.63043 16.1825C3.66903 15.1143 2.68894 13.8658 1.9454 12.544C1.20618 11.2298 0.666504 9.78278 0.666504 8.33333C0.666504 6.1232 1.54448 4.00358 3.10728 2.44078C4.67008 0.877974 6.7897 0 8.99984 0C11.21 0 13.3296 0.877974 14.8924 2.44078C16.4552 4.00358 17.3332 6.1232 17.3332 8.33333C17.3332 9.78278 16.7935 11.2298 16.0543 12.544C15.3107 13.8658 14.3306 15.1143 13.3692 16.1825C12.4054 17.2534 11.4443 18.1608 10.7253 18.7999C10.3653 19.12 10.0645 19.374 9.85257 19.5489C9.74658 19.6364 9.6627 19.7042 9.60464 19.7507C9.57561 19.7739 9.55303 19.7918 9.53734 19.8041L9.51905 19.8185L9.51389 19.8226L9.51233 19.8238C9.51233 19.8238 9.51145 19.8245 8.99984 19.1667L9.51145 19.8245C9.21053 20.0585 8.78879 20.0582 8.48787 19.8242ZM8.99984 19.1667L8.48787 19.8242C8.48787 19.8242 8.48822 19.8245 8.99984 19.1667ZM11.4998 8.33333C11.4998 9.71405 10.3805 10.8333 8.99984 10.8333C7.61913 10.8333 6.49984 9.71405 6.49984 8.33333C6.49984 6.95262 7.61913 5.83333 8.99984 5.83333C10.3805 5.83333 11.4998 6.95262 11.4998 8.33333Z" fill="#16161A"/>
</svg>
