<svg width="34" height="34" viewBox="0 0 34 34" fill="none" xmlns="http://www.w3.org/2000/svg">
<path d="M6.97189 4.05538C6.43491 3.51841 5.56431 3.51841 5.02734 4.05538L4.05507 5.02765C3.5181 5.56462 3.5181 6.43522 4.05507 6.97219L14.0828 16.9999L4.05512 27.0276C3.51815 27.5646 3.51815 28.4352 4.05512 28.9722L5.02739 29.9445C5.56436 30.4814 6.43496 30.4814 6.97194 29.9445L16.9996 19.9168L27.0273 29.9445C27.5643 30.4814 28.4349 30.4814 28.9719 29.9445L29.9442 28.9722C30.4811 28.4352 30.4811 27.5646 29.9442 27.0276L19.9165 16.9999L29.9442 6.97219C30.4812 6.43522 30.4812 5.56462 29.9442 5.02765L28.9719 4.05538C28.435 3.51841 27.5644 3.51841 27.0274 4.05538L16.9996 14.0831L6.97189 4.05538Z" fill="#8359E3"/>
</svg>
